<svg width="390" height="390" viewBox="0 0 390 390" fill="none" xmlns="http://www.w3.org/2000/svg">
<path d="M113.75 357.498H276.25C284.342 357.498 291.2 351.551 292.337 343.556L322.839 129.998H341.25V97.498H318.793L290.777 41.4843C288.031 35.9755 282.409 32.498 276.25 32.498H113.75C107.591 32.498 101.969 35.9755 99.2063 41.4843L71.2075 97.498H48.75V129.998H67.1612L97.6625 343.556C98.8 351.551 105.658 357.498 113.75 357.498ZM283.042 178.748H106.957L99.9862 129.998H289.998L283.042 178.748ZM127.839 324.998L120.868 276.248H269.116L262.145 324.998H127.839ZM123.793 64.998H266.207L282.457 97.498H107.543L123.793 64.998Z" fill="#D8DEE9"/>
</svg>
