<svg version="1" xmlns="http://www.w3.org/2000/svg" width="933.333" height="933.333" viewBox="0 0 700.000000 700.000000"><path d="M196.9 59.4c-6.1 1.6-11.2 4.9-15.2 9.9-1.8 2.3-14.7 27-28.6 54.9L127.8 175H87.5v58l8 .1c4.4.1 11.4.1 15.5 0s8 .2 8.7.6c.6.5 1.4 3.3 1.8 6.3.3 3 .8 6.2 1 7 .2.8.6 3.7 1 6.5.3 2.7 1.2 9.3 2 14.5 1.8 12.7 2.5 17.4 2.9 20.7.5 3.6 1.5 10.2 2.6 17.8.5 3.3 1.2 8.2 1.5 11 .4 2.7.8 6.1 1 7.4.2 1.3.7 4.5 1.1 7 .4 2.5.8 5.5 1.1 6.6.2 1.1.6 4.2.9 7 .3 2.7.9 7.2 1.4 10 .5 2.7 1.2 7.3 1.5 10.1.3 2.8.8 6.1 1 7.5.3 1.3.8 4.9 1.1 7.9.3 3 .7 5.7.9 6 .2.3.7 3.5 1 7 .4 3.6.8 6.7 1 7 .2.3.7 3.5 1 7 .4 3.6.8 6.7 1 7 .2.3.6 3.4 1 7s.8 6.7 1 7c.1.3.6 3.2 1 6.5.8 6.6 1 8.1 1.9 14 1.8 12.6 5.2 36.2 6.2 44 .3 2.2.7 4.7.9 5.5.2.8.6 3.7 1 6.5.3 2.7 1.7 12.4 3 21.5s2.6 18.7 3 21.5c.3 2.7.8 5.7 1 6.5.2.8.6 3.7 1 6.5.3 2.7 1 7.9 1.6 11.5.5 3.6 1.4 9.9 1.9 14 .6 4.1 1.2 8.6 1.5 10 .3 1.4.7 4.5 1 7 2.6 21.4 7.2 29.8 19.4 35.4 4.6 2 5.4 2 155.9 2.2 167.6.1 156.5.5 165-6.3 7.5-6 10-12.2 12.7-31.3.2-1.4.6-4.5 1-7s.8-5.6 1-7c.2-1.4.6-4.3 1-6.5.3-2.2.8-5.6 1-7.5.3-1.9 1.2-8.5 2.1-14.5.9-6.1 1.8-12.1 1.9-13.5.2-1.4.6-4.3.9-6.5.3-2.2.8-5.8 1.1-8 .3-2.2.7-5.1 1-6.5.2-1.4.7-4.5 1-7 .4-2.5 1.2-8.8 2-14 .8-5.2 1.7-11.8 2.1-14.5.3-2.8.8-5.7.9-6.5.2-.9.7-4.3 1.1-7.5.4-3.3.8-6.2.9-6.5.1-.3.5-3 .9-6s.9-6.6 1.1-8c.3-1.4.7-4.8 1-7.5.3-2.8.8-5.7 1-6.5.2-.8.7-3.9 1-6.9.4-3 .8-6.2 1-7.1.2-.9.6-4.1 1-7.1.3-3 .8-6.1 1-6.9.2-.8.7-3.8 1-6.5.3-2.8.7-6.1 1-7.5.2-1.4.6-4.1.9-6 .5-4.1 2.6-18.4 3.1-22 .2-1.4.7-4.8 1-7.5.4-2.8.8-5.7 1-6.5.3-.8.7-3.8 1-6.6.3-2.8.7-6 .9-7.1.3-1.1.7-4.4 1.1-7.4.3-3 .8-6.1 1-6.9.2-.8.7-3.8 1-6.5.3-2.8.7-6.1 1-7.5.2-1.4.9-6.1 1.5-10.5.7-4.4 1.3-8.7 1.5-9.5.1-.8.6-4.2 1-7.5 1-8.2 2.3-17.3 4-28.5.2-1.4.7-4.8 1-7.5.4-2.8.8-5.7 1-6.5.3-.8.7-4 1-7 .4-3 .9-5.8 1.1-6.2.3-.5 5.8-.8 12.2-.7H608l4.5-.1v-58h-40.3l-26.3-52.6c-28.4-56.8-28.5-56.9-38.9-61.8l-4.5-2.1-150.5-.1c-110.2-.1-151.8.2-155.1 1zm280.3 57.5c.5.1 7.3 13.1 15.3 29.1l14.5 29H193l7.5-15.3c4.2-8.3 8.1-16.1 8.7-17.2.6-1.1 3.6-7 6.6-13 3-6.1 5.8-11.5 6.2-12 .6-.7 44.1-.9 127.7-.9 69.7.1 127.1.2 127.5.3zm42.5 117.3c.6.5 1 1.5.8 2.1-.6 1.5-4.4 26.5-5.1 32.7-.2 2.5-.7 5.6-.9 7-.3 1.4-.7 4.3-1 6.5-.3 2.2-.8 5.8-1.2 8-.3 2.2-.7 5-.9 6.2-.3 3.1-1.1 8.4-2.4 17l-1.2 7.3H192.2l-.6-2.8c-.3-1.5-1-6.5-1.6-11.2-.6-4.7-1.3-9.6-1.5-11-1.1-6.8-1.4-8.9-2-13.5-.3-2.8-1-7.5-1.5-10.5s-1.1-7.3-1.4-9.5c-.5-3.7-1.8-13.4-3.2-23-.7-4.6-.7-4.8-.5-5.7.2-1 338.5-.7 339.8.4zm-37.2 262c.3.2 0 3.1-.5 6.4-.5 3.2-1.2 8.1-1.5 10.9-.3 2.7-1 7.5-1.5 10.5s-1.2 7.5-1.5 10c-.3 2.5-.8 5.6-1 7-.3 1.4-.7 4.5-1 7-.3 2.5-.8 5.6-1 7-.5 3.4-2.5 17.4-3.2 23-.3 2.5-.7 4.7-.9 4.8-.4.5-240.5.5-240.9 0-.1-.2-.5-2.3-.8-4.8-.3-2.5-1.1-7.7-1.7-11.5-.6-3.9-1.3-8.7-1.5-10.9-.3-2.1-1.3-9.8-2.4-17-3.1-20.8-3.3-21.7-4.6-32.1-.4-3.3-.9-6.9-1.1-8-.2-1 0-2.2.5-2.5 1.1-.6 264-.5 264.6.2z"/></svg>